<?xml version="1.0" encoding="utf-8"?>
<!-- Generator: Adobe Illustrator 25.0.1, SVG Export Plug-In . SVG Version: 6.00 Build 0)  -->
<svg version="1.1" id="Layer_1" xmlns="http://www.w3.org/2000/svg" xmlns:xlink="http://www.w3.org/1999/xlink" x="0px" y="0px"
	 viewBox="0 0 256 256" style="enable-background:new 0 0 256 256;" xml:space="preserve">
<style type="text/css">
	.st0{fill:#FAFAFA;stroke:#A8A8A8;stroke-width:3;stroke-miterlimit:10;}
	.st1{fill:#007AFF;stroke:#A8A8A8;stroke-width:2;stroke-miterlimit:10;}
	.st2{fill:none;}
	.st3{fill:#5A5A5A;}
	.st4{font-family:'Inter-Regular';}
	.st5{font-size:74.4121px;}
</style>
<path class="st0" d="M220,235.9H35.4c-8.6,0-15.6-7-15.6-15.6V35.7c0-8.6,7-15.6,15.6-15.6H220c8.6,0,15.6,7,15.6,15.6v184.6
	C235.5,228.9,228.5,235.9,220,235.9z"/>
<path class="st1" d="M86.8,18.7c0,10.6-8.5,19.1-19.1,19.1s-19.1-8.6-19.1-19.1"/>
<rect x="48.6" y="53.5" class="st2" width="183.4" height="148.8"/>
<text transform="matrix(1 0 0 1 48.5283 107.7017)" class="st3 st4 st5">plug</text>
<text transform="matrix(1 0 0 1 48.5283 196.9961)" class="st3 st4 st5">data</text>
<path class="st1" d="M48.6,237.3c0-10.6,8.5-19.1,19.1-19.1s19.1,8.5,19.1,19.1"/>
</svg>
