<svg xmlns="http://www.w3.org/2000/svg" viewBox="0 0 2048 2048"><path d="M565 237H1483Q1618 237 1713 332.5Q1808 428 1808 563V1480Q1808 1615 1713 1710.5Q1618 1806 1483 1806H565Q430 1806 335 1710.5Q240 1615 240 1480V563Q240 428 335 332.5Q430 237 565 237ZM776 295V548V1013V1106Q776 1159 741.5 1199Q707 1239 655 1249V1749H997V1247Q946 1237 913.5 1197Q881 1157 881 1106V958V295ZM1174 295V548V1106Q1174 1159 1140 1199Q1106 1239 1055 1249V1749H1393V1247Q1344 1237 1311 1197Q1278 1157 1278 1106V936V548V295ZM483 307Q401 334 349 403.5Q297 473 297 563V1480Q297 1591 376 1670Q455 1749 565 1749H598V1247Q549 1237 516 1197Q483 1157 483 1106V1013V548ZM1571 309V548V936V1106Q1571 1159 1537 1199Q1503 1239 1450 1249V1749H1483Q1594 1749 1672.5 1670Q1751 1591 1751 1480V563Q1751 475 1701 406.5Q1651 338 1571 309Z"/></svg>
