<svg xmlns="http://www.w3.org/2000/svg" viewBox="0 0 2048 2048"><path d="M637 917V1128Q637 1144 647 1154.5Q657 1165 672 1165H801L967 1298Q977 1304 989 1304Q1003 1304 1013.5 1294Q1024 1284 1024 1269V778Q1024 762 1014 751.5Q1004 741 989 741Q977 741 967 749L801 882H672Q658 882 647.5 892.5Q637 903 637 917ZM707 1093V952H813Q825 952 836 946L954 850V1196L836 1101Q826 1093 813 1093ZM1174 874Q1164 864 1149.5 864Q1135 864 1124.5 874Q1114 884 1114 898.5Q1114 913 1124 923Q1165 964 1165 1022.5Q1165 1081 1124 1122Q1114 1132 1114 1147.5Q1114 1163 1124.5 1173Q1135 1183 1149 1183Q1163 1183 1174 1173Q1235 1110 1235 1022.5Q1235 935 1174 874ZM1298 749Q1288 739 1274 739Q1260 739 1248.5 749Q1237 759 1237 773.5Q1237 788 1247 798Q1341 892 1341 1023.5Q1341 1155 1247 1247Q1237 1257 1237 1272.5Q1237 1288 1248.5 1298Q1260 1308 1274 1308Q1288 1308 1298 1298Q1411 1183 1411 1023.5Q1411 864 1298 749ZM639 237V395H848V239Q848 225 858 215.5Q868 206 883 206Q895 206 905 215.5Q915 225 915 239V395H1124Q1124 239 1124 239Q1124 225 1133.5 215.5Q1143 206 1157 206Q1171 206 1180.5 215.5Q1190 225 1190 239V395H1399V241Q1399 227 1409 217.5Q1419 208 1432.5 208Q1446 208 1456 217.5Q1466 227 1466 241V395Q1540 401 1592.5 453Q1645 505 1651 579Q1811 579 1810 579Q1822 579 1832.5 589.5Q1843 600 1843 613Q1843 626 1833 636.5Q1823 647 1810 647H1653V856H1808Q1822 856 1831.5 865Q1841 874 1841 888.5Q1841 903 1832 912Q1823 921 1808 921H1653V1130H1808Q1822 1130 1831.5 1140.5Q1841 1151 1841 1165Q1841 1177 1832 1187.5Q1823 1198 1808 1198H1653V1407H1806Q1820 1407 1829.5 1416Q1839 1425 1839 1439Q1839 1453 1830 1462.5Q1821 1472 1806 1472H1651Q1645 1546 1592.5 1598Q1540 1650 1466 1658Q1466 1810 1466 1810Q1466 1822 1456 1832.5Q1446 1843 1432.5 1843Q1419 1843 1409 1832.5Q1399 1822 1399 1810V1658H1190V1806Q1190 1820 1180.5 1829.5Q1171 1839 1157 1839Q1143 1839 1133.5 1829.5Q1124 1820 1124 1806V1658H915V1806Q915 1820 905 1829.5Q895 1839 883 1839Q869 1839 858.5 1829.5Q848 1820 848 1806V1658H639V1661V1663V1665V1667V1669V1671V1673V1675V1677V1679V1681V1683V1685V1687V1689V1691V1693V1695V1697V1699V1701V1704V1706V1708V1710V1712V1714V1716V1718V1722V1724V1726V1728V1730V1732V1736V1738V1740V1742V1747V1749V1751V1753V1757V1759V1761V1765V1767V1769V1773V1775V1777V1781V1783V1788V1790V1806Q639 1818 630 1828.5Q621 1839 606 1839Q592 1839 582.5 1828.5Q573 1818 573 1806V1658Q499 1650 447 1598Q395 1546 389 1472Q237 1472 238 1472Q226 1472 215.5 1463Q205 1454 205 1439.5Q205 1425 215 1416Q225 1407 238 1407H387V1198H240Q228 1198 217.5 1187.5Q207 1177 207 1165Q207 1151 217 1140.5Q227 1130 240 1130H387V921H240Q228 921 217.5 912Q207 903 207 888Q207 874 217 865Q227 856 240 856H387V647H242Q228 647 218.5 636.5Q209 626 209 613Q209 600 218 589.5Q227 579 242 579H389Q395 505 447.5 453Q500 401 573 395Q573 237 573 237Q573 223 582.5 213.5Q592 204 606.5 204Q621 204 630 213.5Q639 223 639 237ZM592 460Q535 460 495 500Q455 540 455 598V1454Q455 1511 495 1551Q535 1591 592 1591H1448Q1505 1591 1545 1551Q1585 1511 1585 1454V598Q1585 541 1545 500.5Q1505 460 1448 460Z"/></svg>
